<svg width="48" height="48" viewBox="0 0 48 48" fill="none" xmlns="http://www.w3.org/2000/svg">
<mask id="mask0_8_107" style="mask-type:alpha" maskUnits="userSpaceOnUse" x="0" y="0" width="48" height="48">
<circle cx="23.57" cy="23.57" r="23.57" fill="white"/>
</mask>
<g mask="url(#mask0_8_107)">
<circle cx="23.57" cy="23.57" r="23.57" fill="#F3F5F6"/>
<path d="M21.512 8.58552C22.3654 7.07145 24.5457 7.07145 25.3991 8.58552L28.6164 14.2935C29.0775 15.1115 29.8716 15.6885 30.7921 15.8742L37.2149 17.1702C38.9186 17.5139 39.5923 19.5875 38.4161 20.867L33.9816 25.6907C33.3461 26.382 33.0428 27.3155 33.1506 28.2483L33.9029 34.7573C34.1024 36.4838 32.3385 37.7654 30.7581 37.0421L24.8002 34.3152C23.9464 33.9245 22.9648 33.9245 22.111 34.3152L16.1531 37.0421C14.5727 37.7653 12.8088 36.4838 13.0083 34.7573L13.7606 28.2483C13.8684 27.3155 13.565 26.382 12.9295 25.6907L8.4951 20.867C7.31885 19.5875 7.99261 17.5139 9.69628 17.1702L16.1191 15.8742C17.0396 15.6885 17.8337 15.1115 18.2948 14.2935L21.512 8.58552Z" fill="#FFE975" stroke="#2F5164"/>
</g>
</svg>
