<svg width="1179" height="2483" viewBox="0 0 1179 2483" fill="none" xmlns="http://www.w3.org/2000/svg">
<path d="M1147.5 2429.23C1183.1 2356.43 1129.5 2286.31 1070 2307.23C945.333 2351.06 630.087 2545.1 560.5 2460.23C449 2324.23 157.5 2452.39 39.9998 2394.23C-86.5002 2331.6 133 1840.23 299 2080.23C465 2320.23 716.004 2005.23 592.5 1845.73C493 1717.23 317.6 1537.23 392 1805.23C466.4 2073.23 834 1834.23 1008.5 1681.23C1137.5 1568.12 828.12 1492.23 673 1658.23C517.879 1824.23 523.033 1478.06 545 1284.23C561.262 1140.73 790.6 1103.13 955 1168.73C1119.4 1234.33 1133.76 1085.61 1120.39 1003.05C1101.38 885.728 1054.6 910.109 1035.46 776.767C1016.33 643.424 811.8 994.171 756.836 998.638C712.865 1002.21 719.167 860.952 694.18 803.662C670.443 736.528 619.526 620.689 593.852 706.509C568.179 792.33 597.633 798.481 615.568 790.828C755.652 741.138 1013.61 617.446 994.9 533.602C974.75 443.312 887.541 531.012 854.321 583.796C809.33 644.013 723.723 726.109 741.223 572.755C758.723 419.401 927.5 438.504 1006.09 438.504C1310 438.504 1085.94 136.5 983 218.5C880.057 300.5 852.107 203.333 851 144.5C851 49.5 879.8 -88.4999 1079 85.5001C1278.2 259.5 1201 107 1137.5 9.00007" stroke="#ADDCFF" strokeWidth="3"/>
</svg>
